<svg width="25" height="24" viewBox="0 0 25 24" fill="none" xmlns="http://www.w3.org/2000/svg">
<path d="M16.21 12.71C16.301 12.6149 16.3724 12.5028 16.42 12.38C16.52 12.1365 16.52 11.8635 16.42 11.62C16.3724 11.4972 16.301 11.3851 16.21 11.29L13.21 8.29C13.0217 8.1017 12.7663 7.99591 12.5 7.99591C12.2337 7.99591 11.9783 8.1017 11.79 8.29C11.6017 8.4783 11.4959 8.7337 11.4959 9C11.4959 9.2663 11.6017 9.5217 11.79 9.71L13.09 11H9.5C9.23479 11 8.98043 11.1054 8.7929 11.2929C8.60536 11.4804 8.5 11.7348 8.5 12C8.5 12.2652 8.60536 12.5196 8.7929 12.7071C8.98043 12.8946 9.23479 13 9.5 13H13.09L11.79 14.29C11.6963 14.383 11.6219 14.4936 11.5711 14.6154C11.5203 14.7373 11.4942 14.868 11.4942 15C11.4942 15.132 11.5203 15.2627 11.5711 15.3846C11.6219 15.5064 11.6963 15.617 11.79 15.71C11.883 15.8037 11.9936 15.8781 12.1154 15.9289C12.2373 15.9797 12.368 16.0058 12.5 16.0058C12.632 16.0058 12.7627 15.9797 12.8846 15.9289C13.0064 15.8781 13.117 15.8037 13.21 15.71L16.21 12.71ZM22.5 12C22.5 10.0222 21.9135 8.08879 20.8147 6.4443C19.7159 4.79981 18.1541 3.51808 16.3268 2.76121C14.4996 2.00433 12.4889 1.8063 10.5491 2.19215C8.60929 2.578 6.82746 3.53041 5.42894 4.92893C4.03041 6.32746 3.078 8.10929 2.69215 10.0491C2.3063 11.9889 2.50433 13.9996 3.26121 15.8268C4.01809 17.6541 5.29981 19.2159 6.9443 20.3147C8.58879 21.4135 10.5222 22 12.5 22C15.1522 22 17.6957 20.9464 19.5711 19.0711C21.4464 17.1957 22.5 14.6522 22.5 12ZM4.5 12C4.5 10.4178 4.9692 8.87103 5.84825 7.55544C6.7273 6.23985 7.97673 5.21447 9.43854 4.60896C10.9003 4.00346 12.5089 3.84504 14.0607 4.15372C15.6126 4.4624 17.038 5.22433 18.1569 6.34315C19.2757 7.46197 20.0376 8.88743 20.3463 10.4393C20.655 11.9911 20.4965 13.5997 19.891 15.0615C19.2855 16.5233 18.2602 17.7727 16.9446 18.6518C15.629 19.5308 14.0823 20 12.5 20C10.3783 20 8.34344 19.1571 6.84315 17.6569C5.34286 16.1566 4.5 14.1217 4.5 12Z" fill="#333333"/>
</svg>
