<svg width="136" height="68" viewBox="0 0 136 68" fill="none" xmlns="http://www.w3.org/2000/svg">
<path d="M44.7536 19.2499C46.449 18.3661 48.2537 20.229 47.3975 21.979L42.1846 32.6342C41.9028 33.2101 41.9028 33.8899 42.1846 34.4658L47.3975 45.1209C48.2537 46.8709 46.449 48.7339 44.7536 47.8501L34.4315 42.4689C33.8736 42.1781 33.215 42.1781 32.6571 42.4689L22.335 47.8501C20.6396 48.7339 18.8349 46.871 19.6911 45.1209L24.9041 34.4658C25.1858 33.8899 25.1858 33.2101 24.9041 32.6342L19.6911 21.9791C18.8349 20.229 20.6396 18.3661 22.335 19.2499L32.6571 24.631C33.215 24.9218 33.8736 24.9218 34.4315 24.631L44.7536 19.2499Z" fill="#1C37D3"/>
<path d="M31.599 14.6328C32.0884 12.5864 34.9999 12.5864 35.4893 14.6328L38.4517 27.0196C38.6244 27.7419 39.1832 28.309 39.9029 28.4924L52.1442 31.6119C54.1524 32.1236 54.1524 34.9763 52.1442 35.488L39.9029 38.6075C39.1832 38.7909 38.6244 39.358 38.4517 40.0804L35.4893 52.4672C34.9999 54.5136 32.0884 54.5136 31.599 52.4672L28.6367 40.0804C28.4639 39.358 27.9051 38.7909 27.1854 38.6075L14.9441 35.488C12.9359 34.9763 12.9359 32.1236 14.9441 31.6119L27.1854 28.4924C27.9051 28.309 28.4639 27.7419 28.6367 27.0196L31.599 14.6328Z" fill="#2057E7"/>
<path d="M42.2763 33.3941L36.3101 36.178L36.2235 36.2184L36.1835 36.3052L33.4233 42.2824L30.8278 36.4008L30.7901 36.3155L30.7046 36.2781L24.8128 33.706L30.779 30.9221L30.8656 30.8817L30.9056 30.795L33.6658 24.8177L36.2613 30.6993L36.299 30.7847L36.3845 30.822L42.2763 33.3941Z" fill="white" stroke="#F2F2F2" stroke-width="0.5"/>
<path d="M74.0042 30.6C73.957 30.019 73.736 29.5659 73.341 29.2406C72.952 28.9153 72.3595 28.7526 71.5637 28.7526C71.0568 28.7526 70.6412 28.8136 70.317 28.9356C69.9986 29.0518 69.7628 29.2115 69.6096 29.4149C69.4563 29.6182 69.3767 29.8506 69.3708 30.112C69.359 30.327 69.3974 30.5216 69.4858 30.6959C69.5801 30.8643 69.7275 31.0183 69.9279 31.1577C70.1283 31.2913 70.3847 31.4133 70.6972 31.5237C71.0096 31.6341 71.381 31.7328 71.8113 31.82L73.2968 32.1337C74.2989 32.3428 75.1567 32.6188 75.8699 32.9615C76.5832 33.3043 77.1668 33.7081 77.6207 34.1728C78.0746 34.6318 78.4077 35.1488 78.6199 35.7239C78.838 36.2991 78.95 36.9265 78.9559 37.6062C78.95 38.7797 78.6523 39.7731 78.0628 40.5864C77.4733 41.3998 76.6304 42.0185 75.5339 42.4426C74.4434 42.8667 73.1318 43.0787 71.5991 43.0787C70.0252 43.0787 68.6516 42.8492 67.4786 42.3903C66.3114 41.9313 65.4036 41.2255 64.7551 40.2727C64.1126 39.3142 63.7884 38.0884 63.7825 36.5954H68.4512C68.4807 37.1414 68.6192 37.6004 68.8668 37.9722C69.1144 38.344 69.4622 38.6258 69.9102 38.8175C70.3641 39.0092 70.9035 39.105 71.5284 39.105C72.053 39.105 72.4922 39.0411 72.8459 38.9133C73.1996 38.7855 73.4678 38.6083 73.6505 38.3818C73.8333 38.1552 73.9276 37.8967 73.9335 37.6062C73.9276 37.3332 73.8362 37.095 73.6594 36.8916C73.4884 36.6825 73.2054 36.4966 72.8105 36.3339C72.4155 36.1655 71.882 36.0086 71.21 35.8634L69.4062 35.4799C67.8028 35.1372 66.5383 34.5649 65.6128 33.7632C64.6932 32.9557 64.2364 31.8548 64.2423 30.4606C64.2364 29.3277 64.5429 28.3372 65.1619 27.489C65.7867 26.635 66.6503 25.9699 67.7527 25.4935C68.8609 25.0171 70.1313 24.7789 71.5637 24.7789C73.0257 24.7789 74.2901 25.02 75.3571 25.5022C76.4241 25.9844 77.2464 26.6641 77.8241 27.5413C78.4077 28.4127 78.7024 29.4323 78.7083 30.6H74.0042Z" fill="#1C37D3"/>
<path d="M80.8968 42.8696V29.4846H85.7778V42.8696H80.8968ZM83.3373 28.0903C82.6771 28.0903 82.1111 27.8754 81.6396 27.4455C81.168 27.0156 80.9322 26.4985 80.9322 25.8943C80.9322 25.2902 81.168 24.7731 81.6396 24.3432C82.1111 23.9133 82.6771 23.6984 83.3373 23.6984C84.0034 23.6984 84.5693 23.9133 85.035 24.3432C85.5066 24.7731 85.7424 25.2902 85.7424 25.8943C85.7424 26.4985 85.5066 27.0156 85.035 27.4455C84.5693 27.8754 84.0034 28.0903 83.3373 28.0903Z" fill="#1C37D3"/>
<path d="M88.2647 42.8696V29.4846H93.0042V32.0291H93.1456C93.3932 31.088 93.7852 30.3996 94.3217 29.9639C94.864 29.5282 95.4977 29.3103 96.2228 29.3103C96.435 29.3103 96.6442 29.3277 96.8506 29.3626C97.0628 29.3916 97.2662 29.4352 97.4607 29.4933V33.5977C97.219 33.5163 96.9213 33.4553 96.5676 33.4147C96.2139 33.374 95.9103 33.3537 95.6569 33.3537C95.1794 33.3537 94.749 33.4612 94.3659 33.6761C93.9886 33.8852 93.6909 34.1815 93.4728 34.5649C93.2547 34.9426 93.1456 35.387 93.1456 35.8982V42.8696H88.2647Z" fill="#1C37D3"/>
<path d="M99.0612 42.8696V29.4846H103.942V42.8696H99.0612ZM101.502 28.0903C100.841 28.0903 100.275 27.8754 99.8039 27.4455C99.3323 27.0156 99.0965 26.4985 99.0965 25.8943C99.0965 25.2902 99.3323 24.7731 99.8039 24.3432C100.275 23.9133 100.841 23.6984 101.502 23.6984C102.168 23.6984 102.734 23.9133 103.199 24.3432C103.671 24.7731 103.907 25.2902 103.907 25.8943C103.907 26.4985 103.671 27.0156 103.199 27.4455C102.734 27.8754 102.168 28.0903 101.502 28.0903Z" fill="#1C37D3"/>
<path d="M115.236 37.0136V29.4846H120.117V42.8696H115.484V40.325H115.342C115.047 41.179 114.532 41.8471 113.795 42.3293C113.058 42.8057 112.182 43.0438 111.169 43.0438C110.219 43.0438 109.388 42.8289 108.675 42.399C107.968 41.9691 107.416 41.3765 107.021 40.6213C106.632 39.8661 106.435 39.0005 106.429 38.0245V29.4846H111.31V37.0136C111.316 37.6759 111.487 38.1959 111.823 38.5735C112.165 38.9511 112.642 39.1399 113.255 39.1399C113.662 39.1399 114.013 39.0557 114.308 38.8872C114.608 38.7129 114.838 38.4689 114.997 38.1552C115.162 37.8357 115.242 37.4551 115.236 37.0136Z" fill="#1C37D3"/>
<path d="M135.014 33.8417H130.522C130.499 33.5686 130.401 33.3333 130.23 33.1358C130.059 32.9383 129.838 32.7873 129.567 32.6827C129.302 32.5723 129.007 32.5171 128.683 32.5171C128.264 32.5171 127.905 32.5926 127.604 32.7437C127.304 32.8947 127.156 33.1097 127.162 33.3885C127.156 33.5861 127.242 33.7691 127.418 33.9375C127.601 34.106 127.952 34.2367 128.471 34.3297L131.23 34.8177C132.621 35.0675 133.655 35.4887 134.333 36.0812C135.017 36.668 135.362 37.4552 135.368 38.4428C135.362 39.3955 135.073 40.2234 134.501 40.9263C133.935 41.6234 133.16 42.1637 132.176 42.5471C131.197 42.9247 130.08 43.1136 128.824 43.1136C126.749 43.1136 125.125 42.6953 123.952 41.8587C122.785 41.0222 122.134 39.9184 121.998 38.5473H126.844C126.909 38.9714 127.121 39.2997 127.48 39.532C127.846 39.7586 128.306 39.8719 128.86 39.8719C129.308 39.8719 129.676 39.7964 129.965 39.6453C130.26 39.4943 130.41 39.2793 130.416 39.0005C130.41 38.7448 130.28 38.5415 130.027 38.3905C129.779 38.2394 129.39 38.1174 128.86 38.0245L126.455 37.6062C125.069 37.368 124.032 36.9149 123.342 36.2468C122.652 35.5787 122.311 34.7189 122.316 33.6674C122.311 32.7379 122.558 31.9507 123.059 31.3058C123.566 30.6552 124.288 30.1614 125.226 29.8244C126.169 29.4817 127.286 29.3103 128.577 29.3103C130.54 29.3103 132.087 29.7111 133.219 30.5129C134.357 31.3146 134.955 32.4242 135.014 33.8417Z" fill="#1C37D3"/>
</svg>
